<?xml version="1.0" encoding="iso-8859-1"?>
<!-- Generator: Adobe Illustrator 19.0.0, SVG Export Plug-In . SVG Version: 6.00 Build 0)  -->
<svg version="1.1" id="Capa_1" xmlns="http://www.w3.org/2000/svg" xmlns:xlink="http://www.w3.org/1999/xlink" x="0px" y="0px"
	 viewBox="0 0 512 512" style="enable-background:new 0 0 512 512;" xml:space="preserve">
<linearGradient id="SVGID_1_" gradientUnits="userSpaceOnUse" x1="31.9998" y1="257.9995" x2="479.9998" y2="257.9995" gradientTransform="matrix(1 0 0 -1 0 513.9993)">
	<stop  offset="0" style="stop-color:#00F2FE"/>
	<stop  offset="0.021" style="stop-color:#03EFFE"/>
	<stop  offset="0.293" style="stop-color:#24D2FE"/>
	<stop  offset="0.554" style="stop-color:#3CBDFE"/>
	<stop  offset="0.796" style="stop-color:#4AB0FE"/>
	<stop  offset="1" style="stop-color:#4FACFE"/>
</linearGradient>
<path style="fill:url(#SVGID_1_);" d="M146,263c0,60.654,49.346,110,110,110s110-49.346,110-110s-49.346-110-110-110
	S146,202.346,146,263z M256,193c12.04,0,23.378,3.057,33.283,8.433l-94.85,94.851C189.057,286.379,186,275.04,186,263
	C186,224.402,217.402,193,256,193z M256,333c-12.04,0-23.378-3.057-33.283-8.433l94.85-94.851C322.943,239.621,326,250.96,326,263
	C326,301.598,294.598,333,256,333z M480,110v158c0,44.018-12.521,88.354-36.21,128.217c-5.643,9.496-17.914,12.618-27.411,6.977
	c-9.496-5.643-12.619-17.915-6.976-27.41C429.42,342.1,440,304.829,440,268V123.063L255.04,41.86L72,123.011V268
	c0,106.767,87.701,204,184,204c34.037,0,67.313-11.124,96.231-32.171c8.931-6.498,21.44-4.529,27.94,4.402
	s4.529,21.439-4.402,27.939C339.967,498.228,298.552,512,256,512c-30.389,0-60.113-7.155-88.347-21.267
	c-26.359-13.174-50.217-31.768-70.912-55.265C55.597,388.752,32,327.712,32,268V110c0-7.91,4.663-15.077,11.894-18.283l203-90
	c5.139-2.279,10.999-2.289,16.146-0.029l205,90C475.307,94.878,480,102.064,480,110z"/>
<g>
</g>
<g>
</g>
<g>
</g>
<g>
</g>
<g>
</g>
<g>
</g>
<g>
</g>
<g>
</g>
<g>
</g>
<g>
</g>
<g>
</g>
<g>
</g>
<g>
</g>
<g>
</g>
<g>
</g>
</svg>
